<?xml version="1.0" encoding="UTF-8"?>
<svg id="Layer_2" data-name="Layer 2" xmlns="http://www.w3.org/2000/svg" viewBox="0 0 160.24 29.42">
  <defs>
    <style>
      .cls-1 {
        fill: #161616;
        font-family: PlusJakartaSans-SemiBold, 'Plus Jakarta Sans';
        font-size: 23.38px;
        font-variation-settings: 'wght' 600;
        font-weight: 600;
      }

      .cls-2 {
        fill: #ff3d00;
      }

      .cls-3 {
        fill: #ffc107;
      }

      .cls-4 {
        fill: #1976d2;
      }

      .cls-5 {
        fill: #4caf50;
      }
    </style>
  </defs>
  <g id="Layer_1-2" data-name="Layer 1">
    <text class="cls-1" transform="translate(33.78 23.09)"><tspan x="0" y="0">google ads</tspan></text>
    <path class="cls-3" d="m29.13,11.83h-1.18v-.06h-13.24v5.88h8.31c-1.21,3.42-4.47,5.88-8.31,5.88-4.87,0-8.82-3.95-8.82-8.82s3.95-8.82,8.82-8.82c2.25,0,4.3.85,5.85,2.23l4.16-4.16c-2.63-2.45-6.14-3.96-10.01-3.96C6.59,0,0,6.59,0,14.71s6.59,14.71,14.71,14.71,14.71-6.59,14.71-14.71c0-.99-.1-1.95-.29-2.88Z"/>
    <path class="cls-2" d="m1.7,7.86l4.83,3.54c1.31-3.24,4.47-5.52,8.18-5.52,2.25,0,4.3.85,5.85,2.23l4.16-4.16c-2.63-2.45-6.14-3.96-10.01-3.96C9.06,0,4.16,3.19,1.7,7.86Z"/>
    <path class="cls-5" d="m14.71,29.42c3.8,0,7.25-1.45,9.86-3.82l-4.55-3.85c-1.48,1.12-3.31,1.79-5.31,1.79-3.83,0-7.07-2.44-8.3-5.84l-4.8,3.7c2.43,4.76,7.38,8.03,13.09,8.03Z"/>
    <path class="cls-4" d="m29.13,11.83h-1.18v-.06h-13.24v5.88h8.31c-.58,1.65-1.64,3.06-3.01,4.1,0,0,0,0,0,0l4.55,3.85c-.32.29,4.85-3.53,4.85-10.89,0-.99-.1-1.95-.29-2.88Z"/>
  </g>
</svg>