<?xml version="1.0" encoding="UTF-8"?>
<svg id="Layer_2" data-name="Layer 2" xmlns="http://www.w3.org/2000/svg" viewBox="0 0 146.88 28.7">
  <defs>
    <style>
      @font-face {
        font-family: 'Plus Jakarta Display';
        src: url('https://assets.website-files.com/611c14f4bf91b0df48d41981/611c14f4bf91b06c4cd419c1_PlusJakartaDisplay-regular.otf') format('opentype');
        font-weight: 400;
        font-style: normal;
        font-display: swap;
      }
      .cls-1 {
        fill: #161616;
        font-family: PlusJakartaSans-SemiBold, 'Plus Jakarta Sans', 'Plus Jakarta Display', sans-serif;
        font-size: 23.38px;
        font-variation-settings: 'wght' 600;
        font-weight: 600;
      }

      .cls-2 {
        fill: #ffe082;
      }

      .cls-3 {
        fill: #ff5722;
      }

      .cls-4 {
        fill: #fff;
      }

      .cls-5 {
        fill: #ffecb3;
      }

      .cls-6 {
        fill: #f50057;
      }

      .cls-7 {
        fill: #ffd54f;
      }

      .cls-8 {
        fill: #ff1744;
      }

      .cls-9 {
        fill: #ffc107;
      }

      .cls-10 {
        fill: #ff9800;
      }

      .cls-11 {
        fill: #ff6f00;
      }

      .cls-12 {
        fill: #673ab7;
      }

      .cls-13 {
        fill: #8e24aa;
      }

      .cls-14 {
        fill: #304ffe;
      }

      .cls-15 {
        fill: #c2185b;
      }

      .cls-16 {
        fill: #d81b60;
      }

      .cls-17 {
        fill: #4928f4;
      }

      .cls-18 {
        fill: #6200ea;
      }

      .cls-19 {
        fill: none;
        stroke: #fff;
        stroke-linecap: round;
        stroke-linejoin: round;
        stroke-width: 2px;
      }

      .cls-20 {
        letter-spacing: 0em;
      }

      @media (prefers-reduced-motion: no-preference) {
        .cls-1 {
          font-family: PlusJakartaSans-SemiBold, 'Plus Jakarta Sans', sans-serif;
          font-weight: 500;
        }
      }
    </style>
  </defs>
  <g id="Layer_1-2" data-name="Layer 1">
    <path class="cls-14" d="m28.39,5.95c-.32.21-.77.4-.96.61-.07.07-.11.15-.1.23v.82l-.24.8-.24.8-.26.88-.54,1.79-.53,1.77-.4,1.33c0,.21,0,.41-.02.61-.06.76-.21,1.5-.47,2.18-.15.42-.33.83-.56,1.21-.08.15-.18.3-.27.45-.32.5-.7.96-1.12,1.37-.33.33-.68.63-1.07.88h0c-.06.06-.14.1-.21.14-.25.17-.51.31-.78.44-.18.1-.37.18-.56.25-.04.02-.09.04-.13.06-.45.21-.98.36-1.5.43-.03,0-.06,0-.09.02-.32.06-.63.1-.95.13-.14.02-.29.02-.44.02l-.57-.03-2.72-.14s0,0,0,0l-1.37-.07c-.1,0-.21,0-.32,0-.43-.02-.84-.06-1.26-.15h0c-.76-.14-1.48-.4-2.16-.74-.37-.19-.74-.41-1.08-.65-.14-.1-.28-.21-.41-.33-.38-.32-.72-.66-1.04-1.01-.05-.05-.09-.1-.13-.14-.05-.05-.1-.1-.14-.15-.3-.38-.56-.77-.76-1.19-.19-.37-.34-.76-.46-1.19-.05-.15-.09-.29-.12-.45,0,0-.02-.02-.02-.04-.08-.33-.15-.67-.19-1.01-.05-.26-.07-.53-.07-.8-.02-.1-.02-.21-.02-.32l1.52-2.35,1.49-2.29.68-1.04.61-.94.21-.33v-.82c.02-.18.02-.37.02-.55,0-.56-.12-1.1-.3-1.62-.18-.55-.42-1.07-.68-1.54-.3-.55-.62-1.04-.88-1.49-.39-.65-.66-1.19-.59-1.56.57-.14,1.18-.21,1.79-.21h12.73c3.33,0,6.19,2.07,7.38,4.98.13.31.24.64.32.97Z"/>
    <path class="cls-17" d="m28.65,7.96v.21l-1.1.64-.7.41-.77.45-1.54.9-1.51.88-1.54.89-.61.36c0,.38-.1.73-.27,1.05-.25.46-.66.84-1.19,1.17-.53.33-1.19.59-1.92.78,0,0,0,0,0,0-2.83.73-6.7.4-8.58-1-.53-.39-.89-.87-1.05-1.42-.05-.18-.07-.38-.07-.58v-5.72c0-.12-.07-.24-.21-.36-.43-.34-1.44-.67-2.57-.99-.88-.25-1.83-.49-2.63-.73-.63-.19-1.16-.38-1.48-.57.14-.28.31-.56.49-.82C2.49,1.86,4.19.66,6.17.21c.57-.14,1.18-.21,1.79-.21h8.6c4.27.75,8.21,2.49,11.52,4.98.13.31.24.64.32.97.14.53.23,1.07.25,1.63,0,.12,0,.25,0,.37Z"/>
    <path class="cls-18" d="m28.65,7.96v3.51l-.18.54-.6,1.85-.62,1.91-.33,1.02-.3.95-.29.9-.29.89-.15.47-.2.62c0,.6-.02,1.14-.06,1.59,0,.05-.02.1-.02.14-.05.42-.11.78-.21,1.08,0,.05-.02.1-.04.14-.21.57-.52.94-.98,1.18-.11.06-.24.11-.37.16-.42.14-.96.21-1.61.25-.48.03-1.03.04-1.65.04h-.55l-.95-.04h-.17s-1.73-.08-1.73-.08l-1.75-.07-5.77-.24-1.5-.06h-.21c-.62,0-1.15-.05-1.62-.11-.67-.1-1.19-.28-1.58-.54-.56-.36-.88-.88-1.07-1.62-.05-.18-.09-.36-.11-.56-.08-.46-.12-.99-.14-1.59,0-.12,0-.24,0-.37,0,0,0,0,0,0v-.46c0-.23,0-.47,0-.72l.04-1.28.02-.92.03-1.07v-.15l.06-1.96.06-1.96.06-1.84.05-1.81.02-.48c0-.25-.84-.39-1.77-.51-.74-.1-1.55-.18-2.04-.29.04-.18.08-.37.13-.54.14-.57.36-1.11.63-1.63.14-.28.31-.56.49-.82,1.72-.76,3.51-1.35,5.38-1.73,1.64-.34,3.35-.53,5.12-.53,5.86,0,11.27,1.98,15.55,5.32.41.32.82.66,1.22,1.02,0,.12,0,.25,0,.37Z"/>
    <path class="cls-12" d="m28.65,9.85v3.61l-.44.84-.84,1.63-.45.86-.41.79-.18.34c0,.25,0,.49-.02.72,0,.34-.02.67-.04.97-.03.36-.08.68-.13.99-.12.63-.29,1.17-.53,1.62-.03.06-.06.11-.1.16-.09.14-.19.28-.3.41-.14.18-.3.33-.49.45-.27.21-.59.37-.96.5-.45.17-.98.28-1.6.34-.41.04-.85.06-1.34.06l-.33.02-1.66.1h0l-1.76.1-1.79.1-2.47.14-3,.18-.44.02c-.41,0-.79-.02-1.15-.07-.04,0-.07-.02-.11-.02-.54-.09-1.03-.23-1.48-.43-.54-.24-1.01-.56-1.41-.94-.35-.34-.65-.73-.9-1.17-.06-.1-.11-.2-.16-.31-.24-.47-.43-.99-.57-1.57-.02-.1-.05-.2-.06-.3-.05-.18-.09-.37-.11-.57-.09-.51-.14-1.05-.16-1.62h0c0-.24-.02-.46-.02-.7l-.39-.93-.06-.14-.05-.12-.6-1.42-.1-.23-.57-1.38-.64-1.54h0l-.64-1.55-.23-.57v-1.27c0-.5.05-.99.14-1.47.04-.18.08-.37.13-.54.68-.39,1.38-.75,2.11-1.07,1.66-.74,3.43-1.29,5.27-1.62,1.37-.25,2.79-.38,4.23-.38,5.82,0,11.09,2.11,15.22,5.55.16.13.31.25.46.39.37.33.74.67,1.1,1.03Z"/>
    <path class="cls-13" d="m28.65,12.22v4.09l-.45.95-.86,1.79v.02c0,.34-.02.65-.05.93-.08.92-.3,1.5-.67,1.85-.26.27-.59.42-.99.5-.02,0-.06,0-.08.02-.13.02-.26.04-.41.04-.49.05-1.07.02-1.74-.03-.07,0-.15,0-.23-.02-.49-.03-1-.06-1.58-.09-.31,0-.64-.02-.97-.02h-.02l-.8.06h0l-1.81.13-2.06.16-.3.02-2.41.18-1.25.1-1.23.09c-.21,0-.42,0-.63,0,0,0,0,0,0,0-.9-.02-1.7-.07-2.42-.21-.66-.11-1.24-.29-1.74-.55-.51-.25-.93-.6-1.27-1.04-.33-.44-.57-.99-.72-1.65h0c-.11-.54-.18-1.16-.18-1.86l-.12-.21-.71-1.27-.1-.18-.06-.11-.74-1.31-.37-.66-.46-.82-.8-1.42-.42-.75v-2.93c.7-.46,1.42-.87,2.17-1.23.91-.46,1.85-.85,2.83-1.17,1.07-.35,2.18-.63,3.32-.81,1.15-.19,2.34-.29,3.56-.29,5.41,0,10.38,1.93,14.21,5.15.18.14.34.29.51.43.67.6,1.31,1.24,1.89,1.92.06.07.13.14.18.21Z"/>
    <path class="cls-15" d="m28.65,14.89v5.75c-.19-.11-.45-.25-.78-.39-.18-.09-.37-.18-.58-.25-.3-.14-.63-.26-.99-.39-.08-.03-.16-.06-.25-.08-.14-.06-.29-.1-.45-.15-.47-.14-.99-.28-1.53-.4-.21-.04-.42-.08-.64-.11-.69-.12-1.43-.19-2.2-.2-.06,0-.14,0-.2,0l-2.05.02-2.79.02h0l-5.96.05c-1.89,0-3.06.45-3.76.64,0,0,0,0,0,0-.74.19-.97.07-1.03-1.23-.02-.36-.02-.82-.02-1.38l-.45-.34-.78-.59-.48-.37-.1-.07-1.32-1-.2-.15-.41-.32-.76-.57-.92-.7v-2.71c.08-.06.15-.12.23-.17,1.15-.8,2.39-1.47,3.69-2.02,1.16-.49,2.39-.88,3.65-1.16.34-.07.69-.14,1.05-.19,1.06-.18,2.15-.27,3.26-.27,4.78,0,9.18,1.66,12.66,4.42.53.41,1.03.85,1.51,1.32.65.62,1.27,1.28,1.83,1.98.11.14.22.29.33.44.15.19.29.39.44.59Z"/>
    <path class="cls-16" d="m28.65,18.08v2.61c0,.52-.05,1.03-.14,1.52-.14.73-.39,1.43-.72,2.09-.18.04-.37.04-.6,0-.5-.09-1.09-.35-1.73-.69-.03,0-.06-.02-.09-.04-.2-.1-.41-.21-.61-.34-.42-.23-.87-.49-1.31-.72-.1-.05-.19-.1-.28-.14-.51-.26-1.03-.5-1.56-.68h0c-.11-.04-.23-.08-.35-.11-.45-.13-.92-.21-1.36-.21l-.88-.25-3.88-1.12h0l-2.38-.69h0l-1.03-.3c-2.99,0-4.83,1.27-5.72.79-.35-.18-.56-.64-.63-1.55-.02-.25-.03-.54-.03-.88l-.93-.45-.04-.02h0l-.67-.33-.73-.35-.06-.02-.14-.07-1.56-.76-1.19-.58v-2.73c.14-.12.28-.23.42-.34.15-.12.3-.23.45-.35h0c.94-.68,1.93-1.27,2.99-1.77,1.23-.59,2.55-1.04,3.91-1.34.2-.05.41-.1.61-.13,1.13-.21,2.29-.33,3.48-.33,4.19,0,8.05,1.36,11.15,3.65.9.67,1.74,1.41,2.5,2.21.63.66,1.21,1.38,1.74,2.13.04.06.08.11.12.16.29.43.57.87.82,1.32.17.27.31.55.45.83Z"/>
    <path class="cls-6" d="m28.51,22.21c-.14.73-.39,1.43-.72,2.09-.15.29-.32.57-.5.84-.11.17-.23.33-.35.48-.29-.11-.71-.27-1.23-.45h0c-.39-.14-.84-.29-1.31-.42-.14-.04-.27-.08-.41-.12-.57-.15-1.15-.29-1.73-.37-.48-.08-.95-.13-1.38-.13l-.37-.1h0l-1.93-.56-1.19-.34-1.32-.38h0l-.43-.12-5.2-1.5-1.5-.43-1.11-.26-1.81-.43-.22-.06h0l-1.82-.42h0s-.33-.08-.33-.08l-.17-.04-1.33-.31-.15-.04-1.13-.93-.84-.71v-3.25c.29-.29.6-.56.92-.82.1-.09.2-.17.3-.25.1-.08.2-.16.3-.24.72-.55,1.49-1.04,2.3-1.46,1.03-.56,2.13-1,3.29-1.32.22-.07.45-.14.68-.18,1.31-.33,2.67-.49,4.09-.49,3.56,0,6.87,1.07,9.61,2.91,1.36.92,2.59,2.01,3.62,3.26.53.63,1,1.29,1.42,1.99.04.06.07.1.1.16.25.42.49.86.71,1.31.2.4.37.8.53,1.21.25.64.46,1.29.64,1.96Z"/>
    <path class="cls-8" d="m27.28,25.14c-.11.17-.23.33-.35.48-.35.44-.73.84-1.16,1.19-.37.31-.77.59-1.19.83-.16-.04-.32-.09-.49-.15-.53-.18-1.07-.49-1.58-.8-.76-.49-1.42-1.01-1.72-1.25-.11-.1-.17-.14-.17-.14l-1.35-.12-.17-.02-1.75-.15-1.81-.16-2.68-.24-4.25-.37h-.02s-1.5-.73-1.5-.73l-1.51-.73-1.22-.59-.26-.13-.33-.16-1.13-.55-1.5-.72-.47-.23-.67-.21v-3.56c.37-.45.77-.87,1.19-1.27.27-.25.56-.51.85-.75.05-.04.1-.08.14-.11.03-.04.07-.06.1-.08.47-.38.96-.72,1.47-1.03.59-.37,1.21-.71,1.85-.99.69-.31,1.42-.57,2.16-.77,1.3-.37,2.67-.56,4.09-.56,3.25,0,6.25.99,8.72,2.68,1.58,1.08,2.95,2.45,4.04,4.04.36.51.68,1.05.97,1.61.1.21.21.41.29.62.1.2.18.4.27.6.17.41.32.83.45,1.26.25.8.45,1.61.57,2.45.04.28.07.56.1.84Z"/>
    <path class="cls-3" d="m25.78,26.6c0,.06,0,.14,0,.21-.37.31-.77.59-1.19.83-.18.1-.35.19-.53.27-.18.09-.37.17-.56.24-.27-.14-.64-.32-1.03-.49-.55-.25-1.15-.47-1.61-.54-.11-.02-.21-.03-.31-.03l-1.31-.17h-.02l-1.62-.21-1.64-.21-.76-.1-6.02-.78c-.39,0-.8-.02-1.23-.08-.53-.05-1.07-.13-1.62-.24-.54-.1-1.09-.22-1.62-.36-.55-.13-1.09-.28-1.59-.42-.58-.18-1.12-.34-1.58-.49-.37-.12-.69-.23-.94-.32-.14-.34-.26-.7-.35-1.07-.17-.62-.25-1.27-.25-1.94v-1.33c.25-.42.53-.84.84-1.23.57-.75,1.21-1.43,1.91-2.04.02-.03.06-.06.08-.07h0c.25-.23.5-.43.77-.62.03-.03.06-.06.1-.08.13-.1.26-.19.41-.28,1.14-.77,2.4-1.38,3.74-1.78,1.27-.38,2.62-.58,4.02-.58,2.78,0,5.37.82,7.54,2.22,1.6,1.03,2.98,2.38,4.03,3.96.13.18.25.37.37.56.55.93,1,1.93,1.34,2.98.04.12.07.24.1.37.06.21.12.44.17.66.02.06.03.11.05.18.11.5.19,1.03.25,1.55h0c.05.48.07.96.07,1.43Z"/>
    <path class="cls-11" d="m24.14,26.6c0,.28-.02.58-.05.88-.02.14-.03.29-.05.42-.18.09-.37.17-.56.24-.36.14-.72.25-1.1.33-.25.06-.52.1-.78.13h0c-.25-.15-.53-.33-.83-.54-.53-.37-1.09-.8-1.54-1.14t-.02-.02c-.47-.36-.8-.63-.8-.63l-.84.03-1.62.06-.76.03-3.04.11-2.57.1c-.17,0-.37,0-.61,0h0c-.33,0-.73-.03-1.17-.07-.51-.04-1.07-.09-1.63-.14-.55-.06-1.11-.13-1.64-.19-.59-.06-1.15-.14-1.62-.2-.37-.05-.7-.09-.96-.12-.22-.25-.42-.52-.61-.8-.29-.43-.53-.88-.72-1.37-.14-.34-.26-.7-.35-1.07.23-.71.53-1.38.89-2.02.29-.53.62-1.03.99-1.5.36-.47.75-.91,1.17-1.31h0c.12-.13.24-.24.36-.34.22-.21.45-.4.69-.58h0s.02-.02.02-.02c.19-.15.39-.29.59-.42,1.18-.8,2.51-1.4,3.94-1.75.95-.23,1.94-.36,2.97-.36,2.02,0,3.93.49,5.61,1.36h0c1.44.74,2.71,1.76,3.74,2.98.57.65,1.05,1.37,1.45,2.13.28.51.52,1.04.72,1.58.02.05.03.09.05.13.14.4.25.81.36,1.23.07.29.13.6.18.9.02.1.03.18.04.28.08.55.12,1.11.12,1.69Z"/>
    <path class="cls-10" d="m22.51,26.6v.08c0,.27-.02.61-.05.98-.02.27-.05.55-.07.81-.25.06-.52.1-.78.13h0c-.3.04-.6.06-.91.06h-1.39l-.3-.09-1.57-.48-1.59-.48-3.68-1.11-1.59-.48s-.66.26-1.59.57h0c-.36.12-.75.25-1.16.37-.52.15-1.07.3-1.61.42-.56.13-1.11.22-1.6.26-.15.02-.3.02-.44.02-.45-.25-.88-.54-1.27-.87-.34-.29-.66-.6-.96-.94-.22-.25-.42-.52-.61-.8.06-.36.12-.71.21-1.05.24-.95.61-1.85,1.11-2.68.27-.47.57-.92.92-1.35,0-.02.03-.05.06-.06,0,0,0,0,0,0,.1-.14.21-.26.33-.38h0c.33-.36.66-.69,1.03-1,.13-.1.25-.21.38-.31.02-.02.05-.04.08-.06,1.79-1.37,4.03-2.2,6.44-2.2,2.74,0,5.23,1.03,7.12,2.71.91.82,1.68,1.8,2.26,2.89.05.08.1.17.14.25.07.14.14.29.21.45.26.57.47,1.18.61,1.8.02.06.03.13.05.19.06.29.12.6.16.9.06.47.1.95.1,1.43Z"/>
    <path class="cls-9" d="m20.87,26.6c0,.16,0,.33-.02.52-.02.29-.04.61-.08.94-.02.2-.05.4-.08.6h-4.36l-.84-.14-3.29-.53-.47-.07-1.07-.18c-.47,0-1.49.21-2.56.41-.57.1-1.14.21-1.66.29-.06,0-.13.02-.18.02h0c-.56-.12-1.1-.3-1.61-.54-.16-.07-.32-.15-.48-.24-.45-.25-.88-.54-1.27-.87,0-.1-.02-.18-.02-.21,0-.21,0-.41.02-.6.03-.51.1-1,.21-1.48.18-.72.43-1.42.77-2.07.06-.14.14-.27.21-.4.03-.06.07-.12.1-.18.14-.23.3-.45.46-.68.33-.44.71-.85,1.11-1.23h0s.06-.06.1-.09c.04-.03.07-.07.11-.1.16-.14.32-.27.49-.39,0,0,0,0,0,0,1.5-1.12,3.37-1.78,5.4-1.78,1.58,0,3.04.4,4.32,1.1h0c1.1.6,2.05,1.42,2.81,2.41.29.38.56.79.78,1.22h0l.12.24c.24.47.43.96.57,1.47h0s.02.08.03.12c.1.34.18.69.23,1.05,0,.07.02.15.02.22.06.38.08.77.08,1.17Z"/>
    <path class="cls-7" d="m19.24,26.51c0,.13,0,.26-.02.39h0v.02c-.02.57-.1,1.14-.22,1.65,0,.03,0,.06-.02.09h-3.72l-3.06-.66-.41-.09-.06.02-3.4.7-.15.03h-.21c-.51,0-1.01-.05-1.5-.14l-.21-.05h0c-.56-.12-1.1-.3-1.61-.54-.02-.09-.03-.18-.04-.26-.06-.34-.08-.7-.08-1.06,0-.14,0-.27,0-.41.02-.43.09-.85.18-1.26.06-.3.15-.6.25-.88.09-.25.19-.49.3-.72.1-.2.21-.39.32-.58.11-.18.23-.36.36-.53.32-.44.69-.84,1.11-1.2.24-.21.5-.41.77-.58,1.16-.76,2.55-1.21,4.06-1.21.29,0,.58.02.86.06h.02c.85.1,1.65.33,2.38.69h0c1.15.57,2.13,1.42,2.85,2.47.12.18.24.37.34.56.09.15.17.31.24.47.11.25.21.51.3.77h0c.09.29.17.59.22.9h0c.09.45.14.9.14,1.36Z"/>
    <path class="cls-2" d="m17.6,26.68v.02c0,.47-.06.93-.17,1.38-.04.19-.1.38-.17.57h-3.57l-1.82-.5-1.82.5h-2.09c-.51,0-1.01-.05-1.5-.14-.02-.02-.02-.05-.03-.07-.11-.34-.2-.68-.24-1.04-.03-.23-.05-.47-.05-.72,0-.1,0-.2.02-.29,0-.37.06-.74.16-1.09.05-.24.12-.47.21-.69.03-.11.08-.21.14-.32.12-.27.26-.53.42-.79.18-.25.37-.49.58-.72.25-.29.54-.55.87-.76.56-.41,1.19-.71,1.89-.88.46-.13.95-.19,1.45-.19,1.59,0,3.02.64,4.05,1.66.04.04.09.09.13.14h0c.11.12.21.24.32.37.29.37.54.78.73,1.23.1.21.18.42.24.64,0,.03.02.06.02.09.11.39.18.8.2,1.22.02.12.02.25.02.37Z"/>
    <path class="cls-5" d="m15.97,26.68c0,.33-.04.64-.13.93-.08.32-.2.62-.35.91-.02.05-.08.14-.08.14h-7.07s-.02-.02-.02-.03c-.1-.15-.18-.3-.24-.47-.16-.37-.25-.76-.29-1.18-.02-.1-.02-.2-.02-.29,0-.05,0-.1,0-.15,0-.35.06-.68.15-.99.08-.29.18-.55.32-.8,0,0,0,0,0-.02.1-.17.2-.33.32-.49.39-.53.91-.96,1.5-1.23h0c.19-.1.39-.18.6-.23h0c.37-.11.76-.17,1.17-.17.47,0,.92.07,1.34.22.15.04.29.1.44.18h0c.68.33,1.27.84,1.66,1.47.08.12.15.25.21.38.03.06.06.12.09.18.18.41.29.87.33,1.35,0,.04,0,.08,0,.13,0,.06,0,.13,0,.19Z"/>
    <g>
      <path class="cls-19" d="m19.1,3.98h-9.55c-3.1,0-5.57,2.47-5.57,5.57v9.55c0,3.1,2.47,5.57,5.57,5.57h9.55c3.1,0,5.57-2.47,5.57-5.57v-9.55c0-3.1-2.47-5.57-5.57-5.57Z"/>
      <circle class="cls-4" cx="19.9" cy="7.96" r=".8"/>
    </g>
    <circle class="cls-19" cx="14.33" cy="14.33" r="4.78"/>
    <text class="cls-1" transform="translate(33.84 23.09)"><tspan x="0" y="0">ins</tspan><tspan class="cls-20" x="31.4" y="0">t</tspan><tspan x="40.75" y="0">agram</tspan></text>
  </g>
</svg>