<?xml version="1.0" encoding="utf-8"?>
<!-- Generator: Adobe Illustrator 27.5.0, SVG Export Plug-In . SVG Version: 6.00 Build 0)  -->
<svg version="1.1" id="Layer_1" xmlns="http://www.w3.org/2000/svg" xmlns:xlink="http://www.w3.org/1999/xlink" x="0px" y="0px"
	 viewBox="0 0 194 48" style="enable-background:new 0 0 194 48;" xml:space="preserve">
<style type="text/css">
	.st0{fill-rule:evenodd;clip-rule:evenodd;fill:#FF3951;}
	.st1{fill:#FFFFFF;}
	.st2{fill:#FF3951;}
	.st3{fill:#14142B;}
</style>
<path class="st0" d="M23.1,3.4h18.8c6.8,0,10.7,3.9,10.7,10.7V33c0,6.8-3.9,10.7-10.7,10.7H23.1c-6.8,0-10.7-3.9-10.7-10.7V14.2
	C12.4,7.3,16.3,3.4,23.1,3.4z"/>
<g>
	<g>
		<path class="st1" d="M32.9,33c-1.3,0-2.6-0.2-3.7-0.7c-1.2-0.5-2.2-1.2-3-2.1s-1.5-1.9-1.9-3.1l3.3-1.4c0.5,1.2,1.3,2.2,2.2,2.9
			s2.1,1,3.3,1c0.7,0,1.3-0.1,1.8-0.3c0.5-0.2,0.9-0.5,1.2-0.9c0.3-0.4,0.4-0.8,0.4-1.4c0-0.6-0.2-1.1-0.6-1.6
			c-0.4-0.4-0.9-0.7-1.7-1l-4.1-1.3c-1.7-0.5-2.9-1.3-3.8-2.3c-0.9-1-1.3-2.2-1.3-3.7c0-1.2,0.3-2.3,0.9-3.2
			c0.6-0.9,1.5-1.7,2.5-2.2c1.1-0.5,2.3-0.8,3.7-0.8c1.3,0,2.5,0.2,3.5,0.7c1.1,0.5,2,1.1,2.8,1.9c0.8,0.8,1.4,1.7,1.7,2.8l-3.2,1.4
			c-0.4-1.1-1-1.9-1.9-2.5c-0.9-0.6-1.8-0.9-2.9-0.9c-0.7,0-1.2,0.1-1.7,0.3c-0.5,0.2-0.9,0.5-1.2,0.9C29.2,16,29,16.4,29,17
			c0,0.6,0.2,1.1,0.6,1.6c0.4,0.5,1,0.8,1.8,1l3.9,1.2c1.7,0.6,3,1.3,3.8,2.3s1.3,2.2,1.3,3.6c0,1.2-0.3,2.3-0.9,3.2
			c-0.6,0.9-1.5,1.7-2.6,2.2C35.7,32.7,34.4,33,32.9,33z"/>
	</g>
</g>
<g>
	<g>
		<path class="st2" d="M-228.7,33.4c-1.3,0-2.6-0.2-3.7-0.7c-1.2-0.5-2.2-1.2-3-2.1c-0.8-0.9-1.5-1.9-1.9-3.1l3.3-1.4
			c0.5,1.2,1.3,2.2,2.2,2.9c1,0.7,2.1,1,3.3,1c0.7,0,1.3-0.1,1.8-0.3c0.5-0.2,0.9-0.5,1.2-0.9c0.3-0.4,0.4-0.8,0.4-1.4
			c0-0.6-0.2-1.1-0.6-1.6s-0.9-0.7-1.7-1l-4.1-1.3c-1.7-0.5-2.9-1.3-3.8-2.3c-0.9-1-1.3-2.2-1.3-3.7c0-1.2,0.3-2.3,0.9-3.2
			c0.6-0.9,1.5-1.7,2.5-2.2c1.1-0.5,2.3-0.8,3.7-0.8c1.3,0,2.5,0.2,3.5,0.7c1.1,0.5,2,1.1,2.8,1.9c0.8,0.8,1.4,1.7,1.7,2.8l-3.2,1.4
			c-0.4-1.1-1-1.9-1.9-2.5c-0.9-0.6-1.8-0.9-2.9-0.9c-0.7,0-1.2,0.1-1.7,0.3c-0.5,0.2-0.9,0.5-1.2,0.9c-0.3,0.4-0.4,0.9-0.4,1.4
			c0,0.6,0.2,1.1,0.6,1.6c0.4,0.5,1,0.8,1.8,1l3.9,1.2c1.7,0.6,3,1.3,3.8,2.3c0.9,1,1.3,2.2,1.3,3.6c0,1.2-0.3,2.3-0.9,3.2
			c-0.6,0.9-1.5,1.7-2.6,2.2S-227.2,33.4-228.7,33.4z"/>
		<path class="st2" d="M-210.9,33.3c-1.8,0-3.1-0.5-4.1-1.5c-1-1-1.5-2.3-1.5-4.1v-6.9h-2.7v-3.4h0.3c0.8,0,1.4-0.2,1.8-0.6
			c0.4-0.4,0.6-1,0.6-1.8v-1.2h3.8v3.6h3.6v3.4h-3.6v6.7c0,0.5,0.1,1,0.3,1.3c0.2,0.4,0.5,0.6,0.9,0.8c0.4,0.2,0.9,0.3,1.5,0.3
			c0.1,0,0.3,0,0.5,0c0.2,0,0.4,0,0.5-0.1v3.2c-0.3,0-0.6,0.1-0.9,0.1C-210.3,33.2-210.6,33.3-210.9,33.3z"/>
		<path class="st2" d="M-198.7,33.4c-1.6,0-3-0.4-4.2-1.1c-1.2-0.7-2.2-1.7-2.8-3s-1-2.6-1-4.1c0-1.6,0.3-3,1-4.2
			c0.7-1.2,1.6-2.2,2.8-2.9c1.2-0.7,2.5-1.1,4-1.1c1.2,0,2.3,0.2,3.2,0.6c0.9,0.4,1.7,1,2.4,1.7c0.7,0.7,1.1,1.5,1.5,2.4
			s0.5,1.9,0.5,2.9c0,0.3,0,0.6,0,0.8s-0.1,0.5-0.2,0.8h-12.1v-2.9h9.9l-1.8,1.4c0.2-0.9,0.2-1.7-0.1-2.4c-0.3-0.7-0.7-1.2-1.3-1.6
			c-0.6-0.4-1.3-0.6-2.1-0.6c-0.8,0-1.5,0.2-2.1,0.6s-1.1,1-1.4,1.7s-0.4,1.7-0.4,2.7c-0.1,1,0.1,1.8,0.4,2.5
			c0.3,0.7,0.8,1.3,1.5,1.7s1.4,0.6,2.3,0.6c0.9,0,1.6-0.2,2.2-0.5c0.6-0.4,1.1-0.9,1.4-1.5l3,1.5c-0.3,0.7-0.8,1.4-1.4,2
			c-0.7,0.6-1.4,1-2.3,1.4C-196.7,33.3-197.7,33.4-198.7,33.4z"/>
		<path class="st2" d="M-188.6,33.1V11.3h3.8v21.7H-188.6z"/>
		<path class="st2" d="M-181.3,33.1V11.3h3.8v21.7H-181.3z"/>
		<path class="st2" d="M-169.3,33.4c-1.1,0-2-0.2-2.9-0.5c-0.8-0.4-1.4-0.9-1.9-1.6c-0.4-0.7-0.7-1.5-0.7-2.4c0-0.9,0.2-1.6,0.6-2.3
			c0.4-0.7,1-1.2,1.8-1.7c0.8-0.5,1.8-0.8,3-1l5.1-0.8V26l-4.4,0.8c-0.7,0.1-1.3,0.4-1.7,0.7s-0.5,0.8-0.5,1.3c0,0.5,0.2,1,0.6,1.3
			c0.4,0.3,0.9,0.5,1.5,0.5c0.8,0,1.5-0.2,2.1-0.5c0.6-0.3,1.1-0.8,1.4-1.4s0.5-1.2,0.5-1.9v-4.1c0-0.7-0.3-1.2-0.8-1.7
			c-0.5-0.4-1.2-0.7-2.1-0.7c-0.8,0-1.5,0.2-2.1,0.7c-0.6,0.4-1.1,1-1.4,1.7l-3.1-1.5c0.3-0.8,0.8-1.5,1.5-2.1
			c0.7-0.6,1.4-1.1,2.3-1.4c0.9-0.3,1.9-0.5,2.9-0.5c1.3,0,2.4,0.2,3.4,0.7c1,0.5,1.7,1.1,2.3,2s0.8,1.8,0.8,2.9v10.4h-3.6v-2.7
			l0.8,0c-0.4,0.7-0.9,1.2-1.5,1.7s-1.2,0.8-1.9,1C-167.7,33.3-168.5,33.4-169.3,33.4z"/>
		<path class="st2" d="M-157.4,33.1V17.5h3.6v3.5l-0.3-0.5c0.4-1.2,0.9-2,1.7-2.4c0.8-0.5,1.7-0.7,2.8-0.7h0.9v3.4h-1.4
			c-1.1,0-1.9,0.3-2.6,1c-0.7,0.7-1,1.6-1,2.8v8.7H-157.4z"/>
		<path class="st3" d="M-133.6,33.4c-1.3,0-2.6-0.2-3.7-0.7c-1.2-0.5-2.2-1.2-3-2.1s-1.5-1.9-1.9-3.1l3.3-1.4
			c0.5,1.2,1.3,2.2,2.2,2.9s2.1,1,3.3,1c0.7,0,1.3-0.1,1.8-0.3c0.5-0.2,0.9-0.5,1.2-0.9c0.3-0.4,0.4-0.8,0.4-1.4
			c0-0.6-0.2-1.1-0.6-1.6c-0.4-0.4-0.9-0.7-1.7-1l-4.1-1.3c-1.7-0.5-2.9-1.3-3.8-2.3c-0.9-1-1.3-2.2-1.3-3.7c0-1.2,0.3-2.3,0.9-3.2
			c0.6-0.9,1.5-1.7,2.5-2.2c1.1-0.5,2.3-0.8,3.7-0.8c1.3,0,2.5,0.2,3.5,0.7c1.1,0.5,2,1.1,2.8,1.9c0.8,0.8,1.4,1.7,1.7,2.8l-3.2,1.4
			c-0.4-1.1-1-1.9-1.9-2.5c-0.9-0.6-1.8-0.9-2.9-0.9c-0.7,0-1.2,0.1-1.7,0.3c-0.5,0.2-0.9,0.5-1.2,0.9c-0.3,0.4-0.4,0.9-0.4,1.4
			c0,0.6,0.2,1.1,0.6,1.6c0.4,0.5,1,0.8,1.8,1l3.9,1.2c1.7,0.6,3,1.3,3.8,2.3c0.9,1,1.3,2.2,1.3,3.6c0,1.2-0.3,2.3-0.9,3.2
			s-1.5,1.7-2.6,2.2C-130.8,33.2-132.1,33.4-133.6,33.4z"/>
		<path class="st3" d="M-115.8,33.3c-1.8,0-3.1-0.5-4.1-1.5c-1-1-1.5-2.3-1.5-4.1v-6.9h-2.7v-3.4h0.3c0.8,0,1.4-0.2,1.8-0.6
			c0.4-0.4,0.6-1,0.6-1.8v-1.2h3.8v3.6h3.6v3.4h-3.6v6.7c0,0.5,0.1,1,0.3,1.3c0.2,0.4,0.5,0.6,0.9,0.8c0.4,0.2,0.9,0.3,1.5,0.3
			c0.1,0,0.3,0,0.5,0c0.2,0,0.4,0,0.5-0.1v3.2c-0.3,0-0.6,0.1-0.9,0.1C-115.2,33.2-115.6,33.3-115.8,33.3z"/>
		<path class="st3" d="M-105.5,33.4c-1.2,0-2.3-0.3-3.2-0.8c-0.9-0.5-1.6-1.3-2-2.2c-0.5-1-0.7-2.1-0.7-3.4v-9.6h3.8v9.3
			c0,0.7,0.1,1.2,0.4,1.7c0.3,0.5,0.6,0.9,1.1,1.1c0.5,0.3,1,0.4,1.7,0.4c0.6,0,1.2-0.1,1.6-0.4c0.5-0.3,0.9-0.7,1.1-1.2
			c0.3-0.5,0.4-1.1,0.4-1.8v-9.2h3.8v15.6h-3.6V30l0.3,0.5c-0.4,1-1,1.7-1.8,2.2C-103.4,33.2-104.4,33.4-105.5,33.4z"/>
		<path class="st3" d="M-86.8,33.4c-1.5,0-2.9-0.4-4.1-1.1c-1.2-0.7-2.1-1.7-2.8-2.9c-0.7-1.2-1-2.6-1-4.1c0-1.5,0.3-2.9,1-4.1
			c0.7-1.2,1.6-2.2,2.8-2.9c1.2-0.7,2.5-1.1,4-1.1c1.2,0,2.2,0.2,3.2,0.7c0.9,0.5,1.7,1.1,2.2,2l-0.6,0.8v-9.2h3.8v21.7h-3.6v-3
			l0.4,0.7c-0.5,0.9-1.3,1.5-2.2,2C-84.6,33.2-85.7,33.4-86.8,33.4z M-86.4,30c0.8,0,1.6-0.2,2.3-0.6c0.7-0.4,1.2-1,1.6-1.7
			s0.6-1.5,0.6-2.4c0-0.9-0.2-1.7-0.6-2.4c-0.4-0.7-0.9-1.3-1.6-1.7c-0.7-0.4-1.4-0.6-2.3-0.6s-1.6,0.2-2.3,0.6
			c-0.7,0.4-1.2,1-1.6,1.7c-0.4,0.7-0.6,1.5-0.6,2.4c0,0.9,0.2,1.7,0.6,2.4c0.4,0.7,0.9,1.3,1.6,1.7C-88,29.8-87.2,30-86.4,30z"/>
		<path class="st3" d="M-74.8,15.7v-4h3.8v4H-74.8z M-74.8,33.1V17.5h3.8v15.6H-74.8z"/>
		<path class="st3" d="M-59.9,33.4c-1.5,0-2.9-0.4-4.2-1.1c-1.3-0.7-2.3-1.7-3-2.9c-0.7-1.2-1.1-2.6-1.1-4.2c0-1.6,0.4-3,1.1-4.2
			s1.7-2.2,3-2.9c1.2-0.7,2.6-1.1,4.2-1.1c1.6,0,2.9,0.4,4.2,1.1c1.2,0.7,2.2,1.7,3,2.9c0.7,1.2,1.1,2.6,1.1,4.2
			c0,1.6-0.4,3-1.1,4.2c-0.7,1.2-1.7,2.2-3,2.9C-57,33.1-58.4,33.4-59.9,33.4z M-59.9,30c0.9,0,1.6-0.2,2.3-0.6
			c0.6-0.4,1.1-1,1.5-1.7c0.4-0.7,0.6-1.5,0.6-2.4c0-0.9-0.2-1.7-0.6-2.4c-0.4-0.7-0.9-1.3-1.5-1.7c-0.6-0.4-1.4-0.6-2.3-0.6
			c-0.8,0-1.6,0.2-2.2,0.6c-0.7,0.4-1.2,1-1.5,1.7c-0.4,0.7-0.6,1.5-0.6,2.4c0,0.9,0.2,1.7,0.6,2.4c0.4,0.7,0.9,1.3,1.5,1.7
			C-61.5,29.8-60.7,30-59.9,30z"/>
	</g>
</g>
</svg>
