<?xml version="1.0" encoding="utf-8"?>
<!-- Generator: Adobe Illustrator 27.5.0, SVG Export Plug-In . SVG Version: 6.00 Build 0)  -->
<svg version="1.1" id="Layer_2_00000118369274330637004770000006144384296276862090_"
	 xmlns="http://www.w3.org/2000/svg" xmlns:xlink="http://www.w3.org/1999/xlink" x="0px" y="0px" viewBox="0 0 191 46.8"
	 style="enable-background:new 0 0 191 46.8;" xml:space="preserve">
<style type="text/css">
	.st0{enable-background:new    ;}
	.st1{fill:#BBDEFB;}
	.st2{fill:#455A64;}
	.st3{fill:#90CAF9;}
	.st4{fill:#FAFAFA;}
	.st5{fill:#FCE83C;}
	.st6{fill:#8AC24A;}
</style>
<g>
	<g class="st0">
		<path d="M50.8,31.6l-4.8-14h2.7l3.8,11.7l-0.9,0l3.7-11.7h2.3l3.7,11.7l-0.9,0l3.8-11.7h2.7l-4.8,14h-2.3l-3.7-11.7h0.7l-3.7,11.7
			H50.8z"/>
		<path d="M75.5,31.9c-1.4,0-2.6-0.3-3.6-1c-1.1-0.6-1.9-1.5-2.5-2.6c-0.6-1.1-0.9-2.4-0.9-3.8c0-1.4,0.3-2.7,0.9-3.7
			c0.6-1.1,1.4-2,2.4-2.6c1-0.6,2.2-0.9,3.5-0.9c1,0,2,0.2,2.8,0.6c0.8,0.4,1.5,0.9,2.1,1.5c0.6,0.6,1,1.4,1.3,2.2s0.5,1.6,0.5,2.5
			c0,0.2,0,0.4,0,0.6c0,0.2-0.1,0.5-0.1,0.7H70.3v-2.1h10.1l-1.2,0.9c0.2-0.9,0.1-1.7-0.2-2.4c-0.3-0.7-0.8-1.3-1.5-1.7
			c-0.6-0.4-1.4-0.6-2.2-0.6s-1.6,0.2-2.2,0.6s-1.2,1-1.6,1.8c-0.4,0.8-0.5,1.7-0.5,2.7c-0.1,1,0.1,1.9,0.5,2.7s0.9,1.4,1.7,1.8
			c0.7,0.4,1.5,0.6,2.4,0.6c0.9,0,1.7-0.2,2.4-0.6c0.6-0.4,1.2-1,1.6-1.7l2,1c-0.3,0.6-0.7,1.2-1.3,1.8c-0.6,0.5-1.3,0.9-2.1,1.3
			C77.4,31.8,76.5,31.9,75.5,31.9z"/>
		<path d="M92.3,31.9c-1.1,0-2.2-0.2-3.1-0.7s-1.6-1.2-2.1-2.1l0.3-0.4v3H85V12h2.4v8.7L87.1,20c0.5-0.8,1.2-1.5,2.1-2
			c0.9-0.5,1.9-0.7,3.1-0.7c1.3,0,2.5,0.3,3.5,1c1,0.6,1.9,1.5,2.5,2.6c0.6,1.1,0.9,2.4,0.9,3.8c0,1.4-0.3,2.6-0.9,3.7
			c-0.6,1.1-1.4,2-2.5,2.6C94.8,31.6,93.6,31.9,92.3,31.9z M92.1,29.6c0.9,0,1.7-0.2,2.4-0.6s1.2-1,1.6-1.8s0.6-1.6,0.6-2.5
			c0-1-0.2-1.8-0.6-2.5c-0.4-0.7-0.9-1.3-1.6-1.8c-0.7-0.4-1.5-0.6-2.4-0.6c-0.9,0-1.7,0.2-2.4,0.6c-0.7,0.4-1.3,1-1.7,1.8
			c-0.4,0.7-0.6,1.6-0.6,2.5c0,0.9,0.2,1.8,0.6,2.5s1,1.3,1.7,1.8S91.2,29.6,92.1,29.6z"/>
		<path d="M107.5,31.9c-1.4,0-2.6-0.3-3.7-1c-1-0.7-1.8-1.6-2.2-2.8l1.9-0.9c0.4,0.8,0.9,1.5,1.6,2s1.5,0.7,2.3,0.7
			c0.7,0,1.4-0.2,1.9-0.5c0.5-0.4,0.8-0.8,0.8-1.4c0-0.4-0.1-0.8-0.4-1s-0.5-0.5-0.8-0.6S108.3,26,108,26l-2.1-0.6
			c-1.2-0.3-2.2-0.9-2.7-1.5c-0.6-0.7-0.9-1.5-0.9-2.4c0-0.8,0.2-1.6,0.6-2.2c0.4-0.6,1-1.1,1.7-1.4c0.7-0.3,1.6-0.5,2.5-0.5
			c1.2,0,2.3,0.3,3.3,0.9c1,0.6,1.7,1.5,2.1,2.6l-2,0.9c-0.3-0.7-0.8-1.3-1.4-1.7c-0.6-0.4-1.3-0.6-2.1-0.6c-0.7,0-1.3,0.2-1.7,0.5
			s-0.6,0.8-0.6,1.4c0,0.4,0.1,0.7,0.3,0.9c0.2,0.3,0.5,0.4,0.8,0.6c0.3,0.1,0.6,0.2,0.9,0.3l2.3,0.7c1.1,0.3,2,0.8,2.7,1.5
			c0.6,0.7,0.9,1.5,0.9,2.5c0,0.8-0.2,1.5-0.7,2.1s-1,1.1-1.8,1.5C109.3,31.8,108.5,31.9,107.5,31.9z"/>
		<path d="M115.7,15.4v-3.1h2.4v3.1H115.7z M115.7,31.6v-14h2.4v14H115.7z"/>
		<path d="M127.6,31.8c-1.4,0-2.4-0.4-3.2-1.2c-0.7-0.8-1.1-1.9-1.1-3.3v-7.4h-2.5v-2.3h0.5c0.6,0,1.1-0.2,1.5-0.6
			c0.4-0.4,0.5-0.9,0.5-1.5v-1.1h2.4v3.2h3.1v2.3h-3.1v7.3c0,0.5,0.1,0.9,0.2,1.2s0.4,0.6,0.7,0.8c0.3,0.2,0.8,0.3,1.4,0.3
			c0.1,0,0.3,0,0.5,0c0.2,0,0.4,0,0.5-0.1v2.1c-0.2,0.1-0.5,0.1-0.8,0.1C128,31.8,127.8,31.8,127.6,31.8z"/>
		<path d="M138.6,31.9c-1.4,0-2.6-0.3-3.6-1c-1.1-0.6-1.9-1.5-2.5-2.6s-0.9-2.4-0.9-3.8c0-1.4,0.3-2.7,0.9-3.7s1.4-2,2.4-2.6
			c1-0.6,2.2-0.9,3.5-0.9c1,0,2,0.2,2.8,0.6c0.8,0.4,1.5,0.9,2.1,1.5c0.6,0.6,1,1.4,1.3,2.2s0.5,1.6,0.5,2.5c0,0.2,0,0.4,0,0.6
			c0,0.2-0.1,0.5-0.1,0.7h-11.5v-2.1h10.1l-1.2,0.9c0.2-0.9,0.1-1.7-0.2-2.4c-0.3-0.7-0.8-1.3-1.5-1.7c-0.6-0.4-1.4-0.6-2.2-0.6
			s-1.6,0.2-2.2,0.6s-1.2,1-1.6,1.8s-0.5,1.7-0.5,2.7c-0.1,1,0.1,1.9,0.5,2.7c0.4,0.8,0.9,1.4,1.7,1.8s1.5,0.6,2.4,0.6
			c0.9,0,1.7-0.2,2.4-0.6c0.6-0.4,1.2-1,1.6-1.7l2,1c-0.3,0.6-0.7,1.2-1.3,1.8c-0.6,0.5-1.3,0.9-2.1,1.3
			C140.5,31.8,139.6,31.9,138.6,31.9z"/>
	</g>
</g>
<path class="st1" d="M38.7,14.7c0.2,7.2,0.2,14.3,0.2,21.3c0,1.6-0.7,2.3-2.3,2.3c-9.3,0-18.6,0-27.9,0c-1.8,0-2.3-0.9-2.3-2.5
	c0-6.8,0-13.7,0-20.7c0.8-1.1,1.8-1.2,2.9-1.2c8.9,0,17.7,0,26.6,0C36.9,13.9,37.8,13.9,38.7,14.7z"/>
<path class="st2" d="M38.9,14.7c-10.7,0.2-21.3,0.2-32.2,0.2c-0.2-2.2-0.2-4.5-0.3-6.7c0-1.6,0.7-2.3,2.3-2.3c9.3,0,18.6,0,27.9,0
	c1.6,0,2.3,0.8,2.3,2.4C38.9,10.2,38.9,12.3,38.9,14.7z"/>
<path class="st3" d="M36.2,31.9c0,3.6,0,3.6-3.4,3.6c-5.7,0-5.7,0-5.7-5.6c0-3.5,0-7.1,0-10.6c0-1.3,0.4-1.9,1.8-1.9
	c1.7,0.1,3.5,0.1,5.2,0c1.6-0.1,2.1,0.5,2.1,2.1C36.2,23.6,36.2,27.7,36.2,31.9z"/>
<path class="st3" d="M9.1,19c0-1.4,0.8-1.5,1.7-1.5c4,0,8,0,11.9,0c1.2,0,1.8,0.4,1.7,1.7c-0.1,2.3,0,4.5,0,6.8c0,1-0.4,1.5-1.5,1.5
	c-4.1,0-8.3,0-12.4,0c-1.2,0-1.5-0.6-1.5-1.7C9.2,23.6,9.1,21.4,9.1,19z"/>
<path class="st3" d="M13.2,30.2c3.3,0,6.4,0.1,9.4,0c2.3-0.1,1.8,1.5,1.8,2.7c0,1.3,0.5,2.8-1.8,2.7c-3.8-0.1-7.7-0.1-11.5,0
	c-2.3,0.1-2-1.3-2-2.8c0-1.5-0.2-3,2.1-2.7C11.8,30.2,12.4,30.2,13.2,30.2z"/>
<path class="st4" d="M33.4,8.5c0.7,0,1.3-0.1,1.8,0.1c0.8,0.5,1.4,1.2,1,2.2c-0.3,0.8-0.7,1.3-1.8,1.3c-3.9-0.1-7.8-0.1-11.7,0
	c-1.4,0-1.8-0.6-1.8-1.9c0-1.4,0.6-1.8,1.9-1.8C26.2,8.5,29.7,8.5,33.4,8.5z"/>
<path class="st5" d="M15.6,8.6c1.4-0.2,2.1,0.5,2.4,1.6c0.1,0.5-0.2,1.2-0.8,1.5c-0.8,0.4-1.8,0.9-2.4,0
	C14.2,10.6,14.4,9.5,15.6,8.6z"/>
<path class="st6" d="M9.5,9.3c0.9-1.2,1.8-0.9,2.6-0.2c0.6,0.5,0.8,1.2,0.2,2c-0.5,0.6-1.2,1.1-1.9,0.8C9.3,11.6,8.9,10.7,9.5,9.3z"
	/>
</svg>
