<?xml version="1.0" encoding="UTF-8"?>
<svg id="Layer_2" data-name="Layer 2" xmlns="http://www.w3.org/2000/svg" viewBox="0 0 139.21 32.52">
  <defs>
    <style>

      @font-face {
        font-family: 'Plus Jakarta Display';
        src: url('https://assets.website-files.com/611c14f4bf91b0df48d41981/611c14f4bf91b06c4cd419c1_PlusJakartaDisplay-semibold.otf') format('opentype');
        font-weight: 600;
        font-style: normal;
        font-display: swap;
      }

      .cls-1 {
        fill: #fafafa;
      }

      .cls-2 {
        fill: #fce83c;
      }

      .cls-3 {
        fill: #90caf9;
      }

      .cls-4 {
        fill: #8ac24a;
      }

      .cls-5 {
        fill: #bbdefb;
      }

      .cls-6 {
        fill: #455a64;
      }

      .cls-7 {
        font-family: PlusJakartaSans-SemiBold, 'Plus Jakarta Sans', sans-serif;
        font-size: 22px;
        font-variation-settings: 'wght' 500;
        font-weight: 500;
        <!-- isolation: isolate; -->
      }

      .cls-8 {
        letter-spacing: -.02em;
      }

      .cls-9 {
        letter-spacing: 0em;
      }
    </style>
  </defs>
  <g id="Layer_2-2" data-name="Layer 2">
    <text class="cls-7" transform="translate(39.32 23.85)"><tspan class="cls-9" x="0" y="0">website</tspan></text>
    <path class="cls-5" d="m32.31,8.93c.18,7.21.18,14.27.22,21.32,0,1.62-.74,2.27-2.32,2.27-9.31-.02-18.62-.02-27.92,0C.5,32.52,0,31.62,0,29.99c.04-6.83.02-13.66.04-20.7.8-1.1,1.84-1.17,2.91-1.17,8.87-.01,17.75-.01,26.62,0,.91,0,1.81.03,2.73.8Z"/>
    <path class="cls-6" d="m32.49,8.87c-10.68.2-21.35.19-32.22.19C.05,6.83.05,4.58.01,2.33-.01.75.73,0,2.32,0c9.3.01,18.61.01,27.91,0,1.6,0,2.31.78,2.29,2.35-.03,2.1-.01,4.2-.04,6.52Z"/>
    <path class="cls-3" d="m29.81,26.15q0,3.64-3.36,3.65-5.67,0-5.67-5.63c0-3.53.04-7.06-.02-10.59-.02-1.33.41-1.93,1.81-1.86,1.72.08,3.46.1,5.18,0,1.56-.09,2.12.46,2.09,2.05-.09,4.05-.03,8.11-.03,12.38Z"/>
    <path class="cls-3" d="m2.73,13.23c-.01-1.38.77-1.49,1.67-1.49,3.98,0,7.96.03,11.94-.01,1.24-.01,1.77.42,1.74,1.7-.06,2.25-.04,4.51-.01,6.76.01,1.04-.42,1.5-1.47,1.49-4.13-.02-8.26-.03-12.39,0-1.24,0-1.51-.64-1.49-1.7.03-2.18,0-4.36.01-6.74Z"/>
    <path class="cls-3" d="m6.81,24.38c3.3,0,6.38.08,9.45-.03,2.3-.08,1.79,1.49,1.8,2.75.01,1.28.45,2.79-1.82,2.73-3.82-.11-7.66-.15-11.48.01-2.34.1-2.02-1.34-2.04-2.77-.02-1.46-.22-3.01,2.07-2.7.59.08,1.2.01,2.02.01Z"/>
    <path class="cls-1" d="m26.95,2.71c.73.03,1.34-.09,1.76.13.84.45,1.38,1.23,1.04,2.24-.26.79-.69,1.3-1.77,1.27-3.91-.1-7.82-.08-11.73-.02-1.4.02-1.82-.55-1.83-1.88-.01-1.44.64-1.79,1.93-1.77,3.46.05,6.92.02,10.59.02Z"/>
    <path class="cls-2" d="m9.2,2.84c1.37-.18,2.14.5,2.45,1.55.15.51-.2,1.16-.77,1.46-.79.41-1.75.95-2.4.01-.72-1.03-.45-2.12.73-3.02Z"/>
    <path class="cls-4" d="m3.04,3.55c.93-1.17,1.84-.86,2.62-.18.59.51.8,1.24.23,1.98-.48.64-1.15,1.11-1.89.84-1.14-.41-1.55-1.32-.96-2.65Z"/>
  </g>
</svg>